<?xml version="1.0" encoding="UTF-8" standalone="no"?>
<svg
   xmlns:dc="http://purl.org/dc/elements/1.1/"
   xmlns:cc="http://creativecommons.org/ns#"
   xmlns:rdf="http://www.w3.org/1999/02/22-rdf-syntax-ns#"
   xmlns:svg="http://www.w3.org/2000/svg"
   xmlns="http://www.w3.org/2000/svg"
   version="1.1"
   id="svg833"
   xml:space="preserve"
   width="295.55865"
   height="107.55866"
   viewBox="0 0 295.55866 107.55866"><metadata
     id="metadata839"><rdf:RDF><cc:Work
         rdf:about=""><dc:format>image/svg+xml</dc:format><dc:type
           rdf:resource="http://purl.org/dc/dcmitype/StillImage" /><dc:title></dc:title></cc:Work></rdf:RDF></metadata><defs
     id="defs837"><clipPath
       clipPathUnits="userSpaceOnUse"
       id="clipPath849"><path
         d="M 0,841.89 H 618.822 V 0 H 0 Z"
         id="path847" /></clipPath><clipPath
       clipPathUnits="userSpaceOnUse"
       id="clipPath915"><path
         d="M 0,841.89 H 618.822 V 0 H 0 Z"
         id="path913" /></clipPath></defs><g
     id="g841"
     transform="matrix(1.3333333,0,0,-1.3333333,-109.87946,355.46906)"><g
       id="g843"><g
         id="g845"
         clip-path="url(#clipPath849)"><g
           id="g851"
           transform="translate(128.0444,747.1895)"><path
             d="M 0,0 C -4.301,-6.469 -10.24,-11.682 -17.22,-15.087 -23.434,-12.3 -28.902,-8 -33.084,-2.61 c -5.301,6.822 -8.354,14.98 -8.836,23.58 l -0.059,20.843 c 7.118,-4.507 15.256,-6.942 23.739,-7.069 8.923,-0.148 17.818,2.385 25.338,7.147 L 7.254,22.012 C 6.862,14.157 4.348,6.55 0,0 M 10.504,48.596 7.765,46.555 C 5.012,44.509 2.01,42.815 -1.149,41.498 v 6.786 H -4.613 V 40.23 c -4.161,-1.331 -8.523,-2.031 -12.902,-2.031 h -0.667 c -3.9,0.065 -7.718,0.654 -11.382,1.739 v 8.346 h -3.464 v -7.143 c -3.408,1.344 -6.651,3.132 -9.658,5.354 l -2.768,2.051 0.069,-27.635 v -0.089 c 0.51,-9.326 3.818,-18.161 9.561,-25.563 4.425,-5.697 10.187,-10.246 16.722,-13.269 v -6.539 h 3.465 v 6.406 c 7.501,3.684 13.894,9.262 18.523,16.23 4.712,7.079 7.412,15.313 7.834,23.806 v 0.049 z"
             style="fill:#243539;fill-opacity:1;fill-rule:nonzero;stroke:none"
             id="path853" /></g><g
           id="g855"
           transform="translate(135.1421,789.0806)"><path
             d="m 0,0 0.157,-19.879 c -0.393,-7.855 -2.907,-15.462 -7.255,-22.012 -4.3,-6.469 -10.239,-11.682 -17.219,-15.088 -6.215,2.788 -11.683,7.087 -15.865,12.478 -5.301,6.822 -8.354,14.98 -8.836,23.58 l -0.058,20.842 c 7.117,-4.506 15.255,-6.941 23.738,-7.068 C -16.415,-7.295 -7.52,-4.762 0,0"
             style="fill:#8cd6a7;fill-opacity:1;fill-rule:nonzero;stroke:none"
             id="path857" /></g><g
           id="g859"
           transform="translate(97.6177,772.3926)"><path
             d="m 0,0 h 6.16 c 0,0 7.859,-23.452 7.928,-23.899 0.104,0.447 31.001,35.591 31.001,35.591 h 6.108 L 15.651,-30.854 h -5.136 z"
             style="fill:#243539;fill-opacity:1;fill-rule:nonzero;stroke:none"
             id="path861" /></g><g
           id="g863"
           transform="translate(153.2344,756.105)"><path
             d="m 0,0 c 0,0.575 -0.065,1.148 -0.193,1.724 -0.13,0.573 -0.374,1.1 -0.733,1.573 -0.36,0.474 -0.819,0.819 -1.379,1.035 -0.56,0.215 -1.128,0.322 -1.703,0.322 -0.575,0 -1.135,-0.107 -1.68,-0.322 -0.546,-0.216 -1,-0.561 -1.358,-1.035 C -7.406,2.824 -7.657,2.297 -7.8,1.724 -7.945,1.148 -8.016,0.575 -8.016,0 V -0.645 H 0 Z m -6.81,-14.244 c -0.947,0.214 -1.831,0.589 -2.65,1.119 -0.819,0.532 -1.508,1.199 -2.069,2.007 -0.559,0.802 -0.948,1.679 -1.163,2.627 -0.216,0.95 -0.324,1.91 -0.324,2.887 V 0 c 0,0.977 0.108,1.94 0.324,2.886 0.215,0.951 0.596,1.826 1.142,2.631 0.546,0.803 1.221,1.481 2.026,2.025 0.804,0.546 1.687,0.92 2.65,1.122 0.962,0.198 1.918,0.301 2.866,0.301 0.977,0 1.94,-0.103 2.888,-0.301 C -0.171,8.462 0.705,8.088 1.509,7.542 2.313,6.998 2.989,6.32 3.535,5.517 4.08,4.712 4.461,3.837 4.677,2.886 4.892,1.94 5,0.977 5,0 V -4.956 H -8.016 v -0.648 c 0,-0.572 0.071,-1.147 0.216,-1.723 0.143,-0.574 0.402,-1.098 0.776,-1.573 0.372,-0.474 0.84,-0.819 1.4,-1.033 0.561,-0.218 1.127,-0.324 1.702,-0.324 0.574,0 1.143,0.072 1.704,0.215 0.56,0.143 1.048,0.438 1.464,0.884 0.417,0.446 0.64,0.953 0.669,1.529 H 4.914 C 4.855,-8.664 4.576,-9.654 4.073,-10.603 3.57,-11.55 2.888,-12.333 2.026,-12.952 c -0.862,-0.619 -1.803,-1.041 -2.823,-1.271 -1.02,-0.229 -2.062,-0.343 -3.125,-0.343 -0.976,0 -1.94,0.107 -2.888,0.322"
             style="fill:#243539;fill-opacity:1;fill-rule:nonzero;stroke:none"
             id="path865" /></g><g
           id="g867"
           transform="translate(162.356,764.7119)"><path
             d="m 0,0 h 5.042 v -5.074 c 0.172,0.701 0.41,1.364 0.712,1.989 0.301,0.628 0.674,1.215 1.12,1.772 0.445,0.552 0.991,0.967 1.637,1.245 0.647,0.276 1.329,0.416 2.048,0.416 0.661,0 1.314,-0.126 1.961,-0.372 0.647,-0.247 1.184,-0.635 1.615,-1.158 0.432,-0.526 0.762,-1.115 0.992,-1.772 0.23,-0.655 0.388,-1.317 0.474,-1.989 0.086,-0.67 0.128,-1.356 0.128,-2.054 h -4.998 c 0,0.467 -0.058,0.934 -0.172,1.4 -0.115,0.465 -0.36,0.843 -0.733,1.135 -0.374,0.291 -0.79,0.437 -1.25,0.437 C 8,-4.025 7.477,-4.199 7.003,-4.548 6.529,-4.898 6.169,-5.335 5.925,-5.86 5.681,-6.386 5.495,-6.926 5.365,-7.478 5.236,-8.031 5.15,-8.593 5.106,-9.162 5.063,-9.729 5.042,-10.304 5.042,-10.887 V -23.173 H 0 Z"
             style="fill:#243539;fill-opacity:1;fill-rule:nonzero;stroke:none"
             id="path869" /></g><g
           id="g871"
           transform="translate(187.9604,769.0039)"><path
             d="M 0,0 C -0.591,0.256 -1.013,0.68 -1.271,1.269 -1.53,1.856 -1.66,2.454 -1.66,3.058 c 0,0.632 0.13,1.235 0.389,1.811 0.258,0.574 0.68,0.99 1.271,1.25 0.587,0.258 1.185,0.386 1.789,0.386 0.631,0 1.234,-0.128 1.809,-0.386 C 4.173,5.859 4.59,5.443 4.849,4.869 5.107,4.293 5.235,3.69 5.235,3.058 5.235,2.454 5.107,1.856 4.849,1.269 4.59,0.68 4.173,0.256 3.598,0 3.023,-0.261 2.42,-0.39 1.789,-0.39 1.185,-0.39 0.587,-0.261 0,0 m -5.754,-23.025 h 5.344 v 14.651 h -4.74 v 4.44 h 9.74 v -19.091 h 4.741 v -4.44 H -5.754 Z"
             style="fill:#243539;fill-opacity:1;fill-rule:nonzero;stroke:none"
             id="path873" /></g><g
           id="g875"
           transform="translate(206.4692,741.8608)"><path
             d="m 0,0 c -0.935,0.214 -1.804,0.596 -2.608,1.142 -0.805,0.545 -1.472,1.22 -2.004,2.026 -0.532,0.803 -0.905,1.679 -1.121,2.629 -0.216,0.949 -0.324,1.896 -0.324,2.844 v 5.603 c 0,0.949 0.108,1.898 0.324,2.845 0.216,0.949 0.589,1.824 1.121,2.629 0.532,0.804 1.199,1.48 2.004,2.026 0.804,0.546 1.673,0.924 2.608,1.143 0.933,0.213 1.874,0.322 2.823,0.322 1.148,0 2.276,-0.152 3.383,-0.452 1.107,-0.302 2.083,-0.836 2.93,-1.597 0.847,-0.76 1.486,-1.68 1.918,-2.755 0.432,-1.079 0.647,-2.179 0.647,-3.299 V 15.019 H 6.702 v 0.044 c 0,0.689 -0.159,1.352 -0.474,1.984 -0.316,0.631 -0.791,1.097 -1.422,1.399 -0.633,0.302 -1.293,0.452 -1.983,0.452 -0.546,0 -1.092,-0.116 -1.638,-0.343 -0.546,-0.232 -0.992,-0.582 -1.337,-1.056 -0.345,-0.475 -0.58,-0.992 -0.71,-1.552 -0.13,-0.558 -0.194,-1.128 -0.194,-1.703 V 8.641 c 0,-0.573 0.064,-1.142 0.194,-1.703 0.13,-0.56 0.365,-1.077 0.71,-1.55 C 0.193,4.915 0.639,4.561 1.185,4.332 1.731,4.101 2.277,3.987 2.823,3.987 c 0.69,0 1.35,0.15 1.983,0.451 0.631,0.303 1.106,0.769 1.422,1.401 0.315,0.633 0.474,1.293 0.474,1.983 v 0.044 h 4.999 V 7.78 C 11.701,6.658 11.486,5.56 11.054,4.482 10.622,3.404 9.983,2.484 9.136,1.725 8.289,0.961 7.313,0.432 6.206,0.13 5.099,-0.171 3.971,-0.322 2.823,-0.322 1.874,-0.322 0.933,-0.215 0,0"
             style="fill:#243539;fill-opacity:1;fill-rule:nonzero;stroke:none"
             id="path877" /></g><g
           id="g879"
           transform="translate(235.3076,756.105)"><path
             d="m 0,0 c 0,0.575 -0.066,1.148 -0.194,1.724 -0.129,0.573 -0.374,1.1 -0.734,1.573 -0.359,0.474 -0.819,0.819 -1.378,1.035 -0.561,0.215 -1.129,0.322 -1.703,0.322 -0.575,0 -1.135,-0.107 -1.68,-0.322 C -6.235,4.116 -6.688,3.771 -7.048,3.297 -7.407,2.824 -7.658,2.297 -7.802,1.724 -7.945,1.148 -8.017,0.575 -8.017,0 V -0.645 H 0 Z m -6.811,-14.244 c -0.947,0.214 -1.831,0.589 -2.648,1.119 -0.821,0.532 -1.511,1.199 -2.07,2.007 -0.561,0.802 -0.949,1.679 -1.164,2.627 -0.217,0.95 -0.324,1.91 -0.324,2.887 V 0 c 0,0.977 0.107,1.94 0.324,2.886 0.215,0.951 0.597,1.826 1.14,2.631 0.546,0.803 1.223,1.481 2.028,2.025 0.803,0.546 1.686,0.92 2.65,1.122 0.961,0.198 1.918,0.301 2.866,0.301 0.978,0 1.94,-0.103 2.887,-0.301 C -0.171,8.462 0.704,8.088 1.508,7.542 2.311,6.998 2.988,6.32 3.535,5.517 4.08,4.712 4.46,3.837 4.676,2.886 4.891,1.94 4.999,0.977 4.999,0 V -4.956 H -8.017 v -0.648 c 0,-0.572 0.072,-1.147 0.215,-1.723 0.144,-0.574 0.403,-1.098 0.776,-1.573 0.372,-0.474 0.841,-0.819 1.4,-1.033 0.561,-0.218 1.129,-0.324 1.704,-0.324 0.573,0 1.142,0.072 1.701,0.215 0.561,0.143 1.049,0.438 1.466,0.884 0.416,0.446 0.64,0.953 0.668,1.529 h 5 c -0.059,-1.035 -0.338,-2.025 -0.84,-2.974 -0.504,-0.947 -1.187,-1.73 -2.049,-2.349 -0.861,-0.619 -1.803,-1.041 -2.822,-1.271 -1.021,-0.229 -2.063,-0.343 -3.124,-0.343 -0.978,0 -1.941,0.107 -2.889,0.322"
             style="fill:#243539;fill-opacity:1;fill-rule:nonzero;stroke:none"
             id="path881" /></g><g
           id="g883"
           transform="translate(244.4272,764.8125)"><path
             d="m 0,0 h 5.043 v -5.096 c 0.17,0.704 0.408,1.369 0.71,1.997 0.302,0.631 0.675,1.221 1.121,1.78 0.444,0.555 0.99,0.971 1.638,1.25 0.645,0.278 1.328,0.418 2.047,0.418 0.659,0 1.314,-0.126 1.962,-0.373 0.645,-0.249 1.183,-0.638 1.615,-1.164 0.43,-0.527 0.76,-1.119 0.99,-1.779 0.231,-0.658 0.39,-1.323 0.476,-1.997 0.086,-0.674 0.128,-1.362 0.128,-2.064 h -4.998 c 0,0.469 -0.058,0.938 -0.173,1.407 -0.116,0.467 -0.36,0.846 -0.732,1.14 C 9.451,-4.19 9.035,-4.042 8.576,-4.042 8,-4.042 7.477,-4.217 7.003,-4.568 6.529,-4.919 6.168,-5.358 5.924,-5.886 5.681,-6.414 5.495,-6.956 5.365,-7.511 5.235,-8.065 5.151,-8.63 5.105,-9.202 5.064,-9.771 5.043,-10.349 5.043,-10.935 V -23.273 H 0 Z"
             style="fill:#243539;fill-opacity:1;fill-rule:nonzero;stroke:none"
             id="path885" /></g><g
           id="g887"
           transform="translate(273.2856,741.9521)"><path
             d="M 0,0 C -0.891,0.276 -1.666,0.748 -2.328,1.419 -2.989,2.087 -3.513,2.844 -3.902,3.69 -4.289,4.533 -4.555,5.414 -4.698,6.33 -4.843,7.248 -4.912,8.171 -4.912,9.104 v 9.605 h -4.095 v 4.368 h 4.095 v 8.949 H 0.084 V 23.077 H 6.076 V 18.709 H 0.084 V 9.104 C 0.084,8.579 0.114,8.047 0.171,7.509 0.229,6.97 0.335,6.447 0.496,5.937 0.652,5.427 0.927,4.97 1.313,4.563 1.703,4.156 2.168,3.952 2.715,3.952 c 0.432,0 0.84,0.137 1.229,0.414 C 4.33,4.642 4.612,4.991 4.785,5.414 4.956,5.836 5.079,6.267 5.151,6.703 5.222,7.138 5.258,7.59 5.258,8.055 V 8.274 H 10.3 V 7.794 C 10.3,6.746 10.15,5.705 9.849,4.672 9.547,3.637 9.043,2.706 8.339,1.878 7.634,1.046 6.779,0.458 5.774,0.109 4.768,-0.238 3.75,-0.413 2.715,-0.413 1.794,-0.413 0.891,-0.274 0,0"
             style="fill:#243539;fill-opacity:1;fill-rule:nonzero;stroke:none"
             id="path889" /></g><path
           d="m 435.019,775.537 h -23.02 v 23.02 h 23.02 z"
           style="fill:#243539;fill-opacity:1;fill-rule:nonzero;stroke:none"
           id="path891" /><path
           d="m 435.019,720.754 h -23.02 v 23.02 h 23.02 z"
           style="fill:#8cd6ae;fill-opacity:1;fill-rule:nonzero;stroke:none"
           id="path893" /></g></g><text
       transform="matrix(1,0,0,-1,456.6675,791.8901)"
       style="font-variant:normal;font-weight:normal;font-stretch:normal;font-size:12px;font-family:'Myriad Pro';-inkscape-font-specification:MyriadPro-Regular;writing-mode:lr-tb;fill:#231f20;fill-opacity:1;fill-rule:nonzero;stroke:none"
       id="text907"><tspan
         x="0 6.96 16.608 23.016001 29.52 36 42.155998 48.312 50.855999 54.972 57.515999 63.672001 69.828003 72.372002 76.487999 79.031998 85.188004 91.344002 93.888 98.003998 100.548 106.704"
         y="0"
         id="tspan895">CMYK 80 / 58 / 52 / 55</tspan><tspan
         x="0 6.4920001 14.244 20.747999 36 42.155998 48.312 50.855999 54.972 57.515999 63.672001 69.828003 72.372002 76.487999 79.031998 85.188004"
         y="14.4"
         id="tspan897">RGB 44 / 60 / 66</tspan><tspan
         x="0 5.9640002 12.12 17.496 23.652 29.028 35.183998"
         y="28.799999"
         id="tspan899">#2c3c42</tspan><tspan
         x="0 6.96 16.608 23.016001 29.52 36 42.155998 48.312 50.855999 54.972 57.515999 63.672001 66.216003 70.332001 72.875999 79.031998 85.188004 87.732002 91.848 94.391998"
         y="52.428001"
         id="tspan901">CMYK 45 / 0 / 38 / 0</tspan><tspan
         x="0 6.4920001 14.244 20.747999 36 42.155998 48.312 54.467999 57.012001 61.127998 63.672001 69.828003 75.984001 82.139999 84.683998 88.800003 91.344002 97.5 103.656"
         y="66.828003"
         id="tspan903">RGB 152 / 217 / 182</tspan><tspan
         x="0 5.9640002 12.12 18.275999 25.044001 31.200001 38.028"
         y="81.227997"
         id="tspan905">#98d9b6</tspan></text><g
       id="g909"><g
         id="g911"
         clip-path="url(#clipPath915)"><g
           id="g1081"
           transform="translate(132.5386,213.0068)"
           style="fill:#fff8e5;fill-opacity:1"><path
             d="m 0,0 c -4.743,-7.134 -11.293,-12.883 -18.991,-16.639 -6.853,3.074 -12.884,7.815 -17.496,13.76 -5.846,7.524 -9.213,16.522 -9.745,26.005 l -0.064,22.986 c 7.849,-4.97 16.824,-7.655 26.179,-7.795 9.841,-0.164 19.651,2.632 27.945,7.882 L 7.945,31.322 C -2.146,19.818 -17.941,1.773 -18.019,1.438 c -0.077,0.493 -8.744,26.357 -8.744,26.357 h -6.793 L -21.96,-6.231 h 5.665 L 7.896,22.724 C 7.228,14.614 4.508,6.791 0,0 M 22.907,40.69 H 16.17 c 0,0 -1.744,-1.984 -4.44,-5.055 L 11.584,53.595 8.563,51.343 C 5.527,49.087 2.216,47.219 -1.267,45.767 v 7.483 h -3.821 v -8.882 c -4.589,-1.468 -9.4,-2.24 -14.228,-2.24 h -0.736 c -4.301,0.071 -8.512,0.721 -12.553,1.919 v 9.203 h -3.82 v -7.878 c -3.758,1.482 -7.335,3.454 -10.651,5.904 l -3.053,2.263 0.075,-30.476 v -0.099 c 0.563,-10.286 4.212,-20.029 10.546,-28.192 4.879,-6.285 11.234,-11.301 18.442,-14.635 v -7.211 h 3.821 v 7.066 c 8.272,4.062 15.323,10.213 20.427,17.898 5.198,7.806 8.175,16.889 8.641,26.255 v 0.052 l -0.026,3.196 z"
             style="fill:#fff8e5;fill-opacity:1;fill-rule:nonzero;stroke:none"
             id="path1083" /></g><g
           id="g1085"
           transform="translate(160.3198,222.127)"
           style="fill:#fff8e5;fill-opacity:1"><path
             d="m 0,0 h -8.841 v 0.713 c 0,0.633 0.078,1.265 0.238,1.9 0.158,0.633 0.435,1.214 0.832,1.736 0.395,0.521 0.895,0.903 1.497,1.141 0.601,0.237 1.219,0.355 1.854,0.355 0.633,0 1.259,-0.118 1.878,-0.355 0.617,-0.238 1.124,-0.62 1.52,-1.141 C -0.626,3.827 -0.357,3.246 -0.213,2.613 -0.072,1.978 0,1.346 0,0.713 Z M 3.898,6.797 C 3.296,7.683 2.55,8.43 1.664,9.03 0.777,9.633 -0.189,10.043 -1.235,10.267 -2.282,10.485 -3.343,10.6 -4.42,10.6 -5.466,10.6 -6.521,10.485 -7.582,10.267 -8.644,10.043 -9.618,9.633 -10.504,9.03 -11.392,8.43 -12.137,7.683 -12.739,6.797 -13.34,5.909 -13.76,4.944 -13.998,3.896 -14.236,2.851 -14.354,1.789 -14.354,0.713 v -6.181 c 0,-1.078 0.118,-2.136 0.356,-3.184 0.238,-1.046 0.666,-2.012 1.283,-2.897 0.618,-0.89 1.378,-1.627 2.281,-2.215 0.904,-0.584 1.878,-0.997 2.923,-1.233 1.046,-0.238 2.108,-0.355 3.186,-0.355 1.171,0 2.32,0.125 3.446,0.378 1.124,0.254 2.162,0.719 3.112,1.403 0.951,0.68 1.704,1.546 2.259,2.59 0.554,1.045 0.862,2.139 0.926,3.279 h -5.513 c -0.031,-0.634 -0.277,-1.194 -0.737,-1.686 -0.459,-0.491 -0.998,-0.816 -1.614,-0.974 -0.619,-0.158 -1.246,-0.238 -1.879,-0.238 -0.635,0 -1.259,0.118 -1.878,0.358 -0.617,0.236 -1.133,0.616 -1.545,1.138 -0.412,0.525 -0.697,1.103 -0.855,1.736 -0.16,0.636 -0.238,1.268 -0.238,1.9 v 0.714 H 5.515 v 5.467 c 0,1.076 -0.12,2.138 -0.357,3.183 C 4.919,4.944 4.5,5.909 3.898,6.797"
             style="fill:#fff8e5;fill-opacity:1;fill-rule:nonzero;stroke:none"
             id="path1087" /></g><g
           id="g1089"
           transform="translate(187.0615,229.0742)"
           style="fill:#fff8e5;fill-opacity:1"><path
             d="m 0,0 c -0.253,0.724 -0.617,1.374 -1.093,1.954 -0.475,0.576 -1.069,1.003 -1.782,1.277 -0.713,0.271 -1.434,0.41 -2.163,0.41 -0.792,0 -1.544,-0.153 -2.257,-0.459 -0.713,-0.307 -1.316,-0.763 -1.807,-1.373 -0.492,-0.613 -0.902,-1.262 -1.235,-1.954 -0.333,-0.689 -0.595,-1.42 -0.785,-2.194 v 5.596 h -5.561 v -25.556 h 5.561 V -8.75 c 0,0.643 0.023,1.278 0.071,1.902 0.049,0.627 0.144,1.249 0.285,1.859 0.144,0.609 0.349,1.204 0.618,1.783 0.269,0.58 0.666,1.061 1.189,1.447 0.522,0.386 1.1,0.577 1.735,0.577 0.507,0 0.966,-0.162 1.378,-0.481 0.411,-0.323 0.681,-0.739 0.808,-1.253 0.127,-0.514 0.191,-1.029 0.191,-1.543 h 5.512 c 0,0.77 -0.046,1.525 -0.142,2.266 C 0.428,-1.453 0.254,-0.724 0,0"
             style="fill:#fff8e5;fill-opacity:1;fill-rule:nonzero;stroke:none"
             id="path1091" /></g><g
           id="g1093"
           transform="translate(203.6797,232.7266)"
           style="fill:#fff8e5;fill-opacity:1"><path
             d="m 0,0 h -10.742 v -4.897 h 5.227 v -16.158 h -5.893 v -4.896 H 5.228 v 4.896 H 0 Z"
             style="fill:#fff8e5;fill-opacity:1;fill-rule:nonzero;stroke:none"
             id="path1095" /></g><g
           id="g1097"
           transform="translate(198.6172,237.0654)"
           style="fill:#fff8e5;fill-opacity:1"><path
             d="m 0,0 c 0.648,-0.288 1.307,-0.431 1.973,-0.431 0.696,0 1.361,0.143 1.995,0.431 0.634,0.281 1.095,0.75 1.379,1.399 0.285,0.648 0.427,1.307 0.427,1.972 0,0.698 -0.142,1.363 -0.427,1.998 C 5.063,6.002 4.602,6.461 3.968,6.747 3.334,7.032 2.669,7.174 1.973,7.174 1.307,7.174 0.648,7.032 0,6.747 -0.652,6.461 -1.117,6.002 -1.402,5.369 -1.687,4.734 -1.83,4.069 -1.83,3.371 -1.83,2.706 -1.687,2.047 -1.402,1.399 -1.117,0.75 -0.652,0.281 0,0"
             style="fill:#fff8e5;fill-opacity:1;fill-rule:nonzero;stroke:none"
             id="path1099" /></g><g
           id="g1101"
           transform="translate(229.106,230.4658)"
           style="fill:#fff8e5;fill-opacity:1"><path
             d="m 0,0 c -0.934,0.84 -2.012,1.43 -3.232,1.762 -1.221,0.331 -2.465,0.499 -3.731,0.499 -1.046,0 -2.085,-0.12 -3.114,-0.356 -1.03,-0.242 -1.989,-0.659 -2.876,-1.26 -0.887,-0.603 -1.622,-1.349 -2.21,-2.235 -0.586,-0.888 -0.998,-1.852 -1.236,-2.899 -0.238,-1.045 -0.357,-2.091 -0.357,-3.137 v -6.181 c 0,-1.044 0.119,-2.089 0.357,-3.135 0.238,-1.048 0.65,-2.016 1.236,-2.9 0.588,-0.888 1.323,-1.634 2.21,-2.234 0.887,-0.603 1.846,-1.024 2.876,-1.26 1.029,-0.238 2.068,-0.354 3.114,-0.354 1.266,0 2.51,0.166 3.731,0.498 1.22,0.333 2.298,0.916 3.232,1.758 0.934,0.836 1.638,1.853 2.115,3.041 0.477,1.189 0.713,2.4 0.713,3.638 v 0.094 h -5.514 v -0.048 c 0,-0.761 -0.174,-1.488 -0.521,-2.187 -0.349,-0.697 -0.873,-1.21 -1.569,-1.545 -0.698,-0.331 -1.426,-0.497 -2.187,-0.497 -0.602,0 -1.204,0.125 -1.807,0.38 -0.601,0.252 -1.093,0.642 -1.474,1.164 -0.38,0.521 -0.639,1.093 -0.783,1.709 -0.143,0.62 -0.214,1.247 -0.214,1.878 v 6.181 c 0,0.633 0.071,1.261 0.214,1.878 0.144,0.617 0.403,1.186 0.783,1.71 0.381,0.523 0.873,0.91 1.474,1.166 0.603,0.25 1.205,0.378 1.807,0.378 0.761,0 1.489,-0.166 2.187,-0.498 0.696,-0.334 1.22,-0.848 1.569,-1.543 0.347,-0.698 0.521,-1.429 0.521,-2.189 v -0.047 h 5.514 v 0.094 c 0,1.236 -0.236,2.449 -0.713,3.639 C 1.638,-1.852 0.934,-0.838 0,0"
             style="fill:#fff8e5;fill-opacity:1;fill-rule:nonzero;stroke:none"
             id="path1103" /></g><g
           id="g1105"
           transform="translate(250.8345,222.127)"
           style="fill:#fff8e5;fill-opacity:1"><path
             d="m 0,0 h -8.841 v 0.713 c 0,0.633 0.078,1.265 0.236,1.9 0.159,0.633 0.436,1.214 0.832,1.736 0.397,0.521 0.896,0.903 1.498,1.141 0.602,0.237 1.22,0.355 1.854,0.355 0.632,0 1.259,-0.118 1.878,-0.355 0.616,-0.238 1.124,-0.62 1.519,-1.141 0.397,-0.522 0.668,-1.103 0.81,-1.736 C -0.073,1.978 0,1.346 0,0.713 Z M 3.898,6.797 C 3.295,7.683 2.548,8.43 1.663,9.03 c -0.887,0.603 -1.852,1.013 -2.9,1.237 -1.045,0.218 -2.105,0.333 -3.184,0.333 -1.045,0 -2.101,-0.115 -3.162,-0.333 C -8.646,10.043 -9.619,9.633 -10.505,9.03 -11.393,8.43 -12.139,7.683 -12.741,6.797 -13.34,5.909 -13.762,4.944 -14,3.896 -14.238,2.851 -14.355,1.789 -14.355,0.713 v -6.181 c 0,-1.078 0.117,-2.136 0.355,-3.184 0.238,-1.046 0.667,-2.012 1.285,-2.897 0.617,-0.89 1.378,-1.627 2.282,-2.215 0.902,-0.584 1.876,-0.997 2.922,-1.233 1.045,-0.238 2.107,-0.355 3.186,-0.355 1.17,0 2.318,0.125 3.444,0.378 1.125,0.254 2.163,0.719 3.114,1.403 0.95,0.68 1.703,1.546 2.259,2.59 0.553,1.045 0.862,2.139 0.926,3.279 h -5.514 c -0.031,-0.634 -0.279,-1.194 -0.737,-1.686 -0.459,-0.491 -0.999,-0.816 -1.617,-0.974 -0.616,-0.158 -1.244,-0.238 -1.875,-0.238 -0.635,0 -1.262,0.118 -1.88,0.358 -0.616,0.236 -1.134,0.616 -1.545,1.138 -0.411,0.525 -0.696,1.103 -0.855,1.736 -0.158,0.636 -0.236,1.268 -0.236,1.9 v 0.714 H 5.513 V 0.713 C 5.513,1.789 5.394,2.851 5.157,3.896 4.918,4.944 4.499,5.909 3.898,6.797"
             style="fill:#fff8e5;fill-opacity:1;fill-rule:nonzero;stroke:none"
             id="path1107" /></g><g
           id="g1109"
           transform="translate(277.5737,229.1699)"
           style="fill:#fff8e5;fill-opacity:1"><path
             d="M 0,0 C -0.253,0.728 -0.618,1.382 -1.092,1.963 -1.568,2.542 -2.162,2.971 -2.874,3.245 -3.587,3.518 -4.31,3.658 -5.038,3.658 -5.83,3.658 -6.583,3.503 -7.294,3.197 -8.008,2.89 -8.61,2.43 -9.101,1.816 -9.593,1.201 -10.004,0.551 -10.337,-0.145 -10.67,-0.837 -10.932,-1.571 -11.12,-2.348 v 5.62 h -5.562 v -25.667 h 5.562 v 13.609 c 0,0.644 0.023,1.283 0.069,1.91 0.05,0.631 0.143,1.254 0.286,1.864 0.143,0.614 0.348,1.211 0.617,1.792 0.268,0.583 0.667,1.068 1.19,1.454 0.522,0.388 1.1,0.58 1.734,0.58 0.506,0 0.965,-0.162 1.38,-0.484 0.41,-0.323 0.679,-0.742 0.806,-1.257 0.128,-0.516 0.192,-1.035 0.192,-1.552 h 5.512 c 0,0.775 -0.047,1.535 -0.142,2.276 C 0.43,-1.458 0.254,-0.726 0,0"
             style="fill:#fff8e5;fill-opacity:1;fill-rule:nonzero;stroke:none"
             id="path1111" /></g><g
           id="g1113"
           transform="translate(298.5176,216.3564)"
           style="fill:#fff8e5;fill-opacity:1"><path
             d="m 0,0 v -0.242 c 0,-0.513 -0.041,-1.012 -0.118,-1.491 -0.08,-0.482 -0.215,-0.956 -0.404,-1.422 -0.19,-0.467 -0.502,-0.851 -0.928,-1.156 -0.429,-0.304 -0.879,-0.458 -1.355,-0.458 -0.603,0 -1.116,0.227 -1.546,0.675 -0.426,0.448 -0.729,0.954 -0.902,1.515 -0.176,0.563 -0.294,1.141 -0.357,1.734 -0.063,0.594 -0.096,1.182 -0.096,1.76 v 10.593 h 6.608 v 4.816 h -6.608 v 9.869 h -5.511 v -9.869 h -4.516 v -4.816 h 4.516 V 0.915 c 0,-1.029 0.077,-2.048 0.238,-3.06 0.157,-1.01 0.45,-1.981 0.877,-2.912 0.429,-0.931 1.007,-1.767 1.735,-2.503 0.731,-0.742 1.585,-1.261 2.568,-1.566 0.983,-0.302 1.979,-0.455 2.994,-0.455 1.141,0 2.264,0.193 3.374,0.575 1.108,0.386 2.051,1.034 2.829,1.95 0.777,0.915 1.332,1.941 1.665,3.083 0.332,1.139 0.498,2.287 0.498,3.444 V 0 Z"
             style="fill:#fff8e5;fill-opacity:1;fill-rule:nonzero;stroke:none"
             id="path1115" /></g><g
           id="g1117"
           transform="translate(116.2432,206.7754)"
           style="fill:#6bb28c;fill-opacity:1"><path
             d="m 0,0 h -5.665 l -11.596,34.026 h 6.794 c 0,0 8.667,-25.864 8.743,-26.357 0.078,0.336 15.873,18.381 25.964,29.885 L 24.124,52.431 C 15.83,47.181 6.02,44.385 -3.821,44.549 c -9.356,0.139 -18.331,2.824 -26.18,7.795 l 0.064,-22.987 c 0.532,-9.483 3.899,-18.481 9.745,-26.004 4.613,-5.946 10.643,-10.687 17.496,-13.76 7.698,3.756 14.248,9.505 18.991,16.638 0.536,0.808 1.042,1.63 1.527,2.464 0.035,0.063 0.074,0.125 0.11,0.187 0.46,0.801 0.892,1.614 1.304,2.436 0.05,0.1 0.102,0.199 0.151,0.297 0.397,0.807 0.768,1.625 1.119,2.45 0.05,0.119 0.101,0.236 0.151,0.354 0.341,0.822 0.658,1.651 0.953,2.489 0.044,0.126 0.088,0.25 0.131,0.375 0.289,0.843 0.555,1.694 0.797,2.55 0.034,0.12 0.066,0.238 0.099,0.357 0.238,0.873 0.455,1.749 0.645,2.634 0.021,0.099 0.04,0.198 0.061,0.298 0.189,0.909 0.355,1.826 0.491,2.747 0.01,0.063 0.017,0.125 0.026,0.187 0.139,0.962 0.252,1.928 0.331,2.899 z"
             style="fill:#6bb28c;fill-opacity:1;fill-rule:nonzero;stroke:none"
             id="path1119" /></g></g></g><text
       transform="matrix(1,0,0,-1,19.1211,558.2915)"
       style="font-variant:normal;font-weight:normal;font-stretch:normal;font-size:12px;font-family:'Myriad Pro';-inkscape-font-specification:MyriadPro-Regular;writing-mode:lr-tb;fill:#231f20;fill-opacity:1;fill-rule:nonzero;stroke:none"
       id="text1175"><tspan
         x="0 6.8280001 10.944"
         y="0"
         id="tspan1169">b/w</tspan><tspan
         x="0 5.3039999 11.892 14.724 18.84"
         y="302.39999"
         id="tspan1171">col/w</tspan><tspan
         x="0 10.008 16.596001 23.256001 29.844 35.220001 41.880001 45.167999"
         y="417.60001"
         id="tspan1173">monochr.</tspan></text></g></svg>
